<svg xmlns="http://www.w3.org/2000/svg" width="64" height="64" viewBox="0 0 64 64">
  <defs>
    <radialGradient id="g" cx="30%" cy="30%" r="80%">
      <stop offset="0" stop-color="#fff8e6" stop-opacity="0.9"/>
      <stop offset="0.45" stop-color="#d6a855" stop-opacity="0.9"/>
      <stop offset="1" stop-color="#d6a855" stop-opacity="0.15"/>
    </radialGradient>
  </defs>
  <g fill="url(#g)">
    <path d="M32 9c5 0 9 4 9 9s-4 11-9 11-9-6-9-11 4-9 9-9z"/>
    <path d="M32 35c5 0 9 4 9 9s-4 11-9 11-9-6-9-11 4-9 9-9z"/>
    <path d="M9 32c0-5 4-9 9-9s11 4 11 9-6 9-11 9-9-4-9-9z"/>
    <path d="M35 32c0-5 6-9 11-9s9 4 9 9-4 9-9 9-11-4-11-9z"/>
    <circle cx="32" cy="32" r="6" fill="#fff3cc" fill-opacity="0.9"/>
  </g>
</svg>